# xmcd
#
# Track frame offsets: 
#        225
#        12979
#        29863
#        44846
#        57264
#        68679
#        88424
#        100206
#        113030
#        122683
#        135736
#        154428
#        166094
#
# Disc length: 2365 seconds
#
# Revision: 1
# Processed by: cddbd v1.4PL0 Copyright (c) Steve Scherf et al.
# Submitted via: ExactAudioCopy v0.90b4
#
DISCID=bb093a0d
DTITLE=Dale Watson - Best Of The HighTone Years
DYEAR=2001
DGENRE=Country
TTITLE0=Hey Driver
TTITLE1=You Lie
TTITLE2=Caught
TTITLE3=Honkiest Tonkiest Beer Joint
TTITLE4=Cheatin' Heart Attack
TTITLE5=Blessed Or Damned
TTITLE6=Nashville Rash
TTITLE7=Truckin' Man
TTITLE8=Tell 'em I Ain't Here
TTITLE9=Pity Party
TTITLE10=I Hate These Songs
TTITLE11=Cowboy Lloyd Cross
TTITLE12=Truckstop In La Grange
EXTD=
EXTT0=
EXTT1=
EXTT2=
EXTT3=
EXTT4=
EXTT5=
EXTT6=
EXTT7=
EXTT8=
EXTT9=
EXTT10=
EXTT11=
EXTT12=
PLAYORDER=
